<svg width="60" height="60" viewBox="0 0 60 60" fill="none" xmlns="http://www.w3.org/2000/svg">
<path d="M45.1172 40.1883C47.4882 38.1966 49.3824 35.6984 50.6601 32.8778C51.9378 30.0571 52.5665 26.9857 52.5 23.8899C52.2656 13.1766 43.6852 4.34299 32.9906 3.78049C30.2313 3.63029 27.4699 4.03615 24.8704 4.97395C22.2709 5.91175 19.8865 7.36237 17.8585 9.23965C15.8306 11.1169 14.2006 13.3826 13.0654 15.9021C11.9302 18.4216 11.3128 21.1435 11.25 23.9063L5.98828 34.0266C5.96719 34.0688 5.94609 34.111 5.92734 34.1531C5.55012 35.0324 5.52323 36.0226 5.85219 36.921C6.18115 37.8195 6.84108 38.5582 7.69688 38.986L7.75547 39.0117L13.125 41.4703V48.75C13.125 49.7446 13.5201 50.6984 14.2233 51.4017C14.9266 52.1049 15.8804 52.5 16.875 52.5H28.125C28.6223 52.5 29.0992 52.3025 29.4508 51.9508C29.8025 51.5992 30 51.1223 30 50.625C30 50.1277 29.8025 49.6508 29.4508 49.2992C29.0992 48.9476 28.6223 48.75 28.125 48.75H16.875V40.268C16.8753 39.9086 16.7722 39.5567 16.5782 39.2542C16.3841 38.9517 16.1072 38.7113 15.7805 38.5617L9.375 35.625L14.782 25.2328C14.923 24.9687 14.9978 24.6744 15 24.375C14.9995 20.5508 16.2979 16.8398 18.6825 13.8501C21.067 10.8604 24.3964 8.76937 28.125 7.91955V11.5735C26.874 12.0158 25.8196 12.8861 25.1482 14.0306C24.4768 15.1751 24.2316 16.5202 24.456 17.828C24.6804 19.1358 25.3599 20.3221 26.3744 21.1774C27.3889 22.0327 28.6731 22.5018 30 22.5018C31.3269 22.5018 32.6111 22.0327 33.6256 21.1774C34.6401 20.3221 35.3196 19.1358 35.544 17.828C35.7684 16.5202 35.5232 15.1751 34.8518 14.0306C34.1804 12.8861 33.126 12.0158 31.875 11.5735V7.50002C32.1797 7.50002 32.4844 7.50002 32.7891 7.52345C36.1141 7.71391 39.3092 8.88051 41.9746 10.8773C44.6401 12.8742 46.6577 15.6125 47.775 18.75H43.125C42.8499 18.7499 42.5782 18.8103 42.3291 18.927C42.08 19.0436 41.8596 19.2137 41.6836 19.425L35.7047 26.6016C34.4577 26.1369 33.0866 26.1283 31.8339 26.577C30.5812 27.0258 29.5275 27.9032 28.8592 29.0539C28.191 30.2047 27.9512 31.5547 28.1824 32.8652C28.4135 34.1756 29.1006 35.3622 30.1222 36.2149C31.1438 37.0676 32.434 37.5316 33.7647 37.5247C35.0954 37.5179 36.3808 37.0407 37.3936 36.1775C38.4063 35.3143 39.0812 34.1208 39.2989 32.808C39.5165 31.4952 39.2629 30.1477 38.5828 29.0039L44.0039 22.5H48.6422C48.6984 22.9875 48.7328 23.4797 48.7453 23.9766C48.8038 26.6621 48.2226 29.3231 47.0497 31.7397C45.8768 34.1563 44.146 36.2593 42 37.875C41.7356 38.0733 41.5282 38.3379 41.399 38.642C41.2698 38.9462 41.2232 39.2791 41.2641 39.6071L43.1391 54.6071C43.1961 55.0599 43.4164 55.4763 43.7585 55.7784C44.1007 56.0804 44.5413 56.2473 44.9977 56.2477C45.076 56.2477 45.1543 56.243 45.232 56.2336C45.4764 56.2032 45.7124 56.1249 45.9266 56.0032C46.1407 55.8816 46.3288 55.7189 46.4801 55.5246C46.6313 55.3302 46.7428 55.108 46.8082 54.8705C46.8735 54.633 46.8915 54.385 46.8609 54.1406L45.1172 40.1883ZM30 18.75C29.6292 18.75 29.2666 18.64 28.9583 18.434C28.65 18.228 28.4096 17.9352 28.2677 17.5925C28.1258 17.2499 28.0887 16.8729 28.161 16.5092C28.2334 16.1455 28.4119 15.8114 28.6742 15.5492C28.9364 15.287 29.2705 15.1084 29.6342 15.036C29.9979 14.9637 30.3749 15.0008 30.7175 15.1427C31.0601 15.2847 31.353 15.525 31.559 15.8333C31.765 16.1417 31.875 16.5042 31.875 16.875C31.875 17.3723 31.6775 17.8492 31.3258 18.2008C30.9742 18.5525 30.4973 18.75 30 18.75ZM33.75 33.75C33.3792 33.75 33.0166 33.6401 32.7083 33.434C32.4 33.228 32.1596 32.9352 32.0177 32.5925C31.8758 32.2499 31.8387 31.8729 31.911 31.5092C31.9834 31.1455 32.1619 30.8114 32.4242 30.5492C32.6864 30.287 33.0205 30.1084 33.3842 30.036C33.7479 29.9637 34.1249 30.0008 34.4675 30.1427C34.8101 30.2847 35.103 30.525 35.309 30.8333C35.515 31.1417 35.625 31.5042 35.625 31.875C35.625 32.3723 35.4275 32.8492 35.0758 33.2008C34.7242 33.5525 34.2473 33.75 33.75 33.75Z" fill="white"/>
</svg>
