<svg width="468" height="468" viewBox="0 0 468 468" fill="none" xmlns="http://www.w3.org/2000/svg">
<g opacity="0.8">
<g opacity="0.2">
<circle cx="34" cy="2" r="2" fill="white"/>
<circle cx="50" cy="2" r="2" fill="white"/>
<circle cx="66" cy="2" r="2" fill="white"/>
<circle cx="82" cy="2" r="2" fill="white"/>
<circle cx="98" cy="2" r="2" fill="white"/>
<circle cx="114" cy="2" r="2" fill="white"/>
<circle cx="130" cy="2" r="2" fill="white"/>
<circle cx="146" cy="2" r="2" fill="white"/>
<circle cx="162" cy="2" r="2" fill="white"/>
<circle cx="178" cy="2" r="2" fill="white"/>
<circle cx="194" cy="2" r="2" fill="white"/>
<circle cx="210" cy="2" r="2" fill="white"/>
<circle cx="226" cy="2" r="2" fill="white"/>
<circle cx="242" cy="2" r="2" fill="white"/>
<circle cx="258" cy="2" r="2" fill="white"/>
<circle cx="274" cy="2" r="2" fill="white"/>
<circle cx="290" cy="2" r="2" fill="white"/>
<circle cx="306" cy="2" r="2" fill="white"/>
<circle cx="322" cy="2" r="2" fill="white"/>
<circle cx="338" cy="2" r="2" fill="white"/>
<circle cx="354" cy="2" r="2" fill="white"/>
<circle cx="370" cy="2" r="2" fill="white"/>
<circle cx="386" cy="2" r="2" fill="white"/>
<circle cx="402" cy="2" r="2" fill="white"/>
<circle cx="418" cy="2" r="2" fill="white"/>
<circle cx="434" cy="2" r="2" fill="white"/>
<circle cx="450" cy="2" r="2" fill="white"/>
<circle cx="466" cy="2" r="2" fill="white"/>
</g>
<g opacity="0.2">
<circle cx="18" cy="18" r="2" fill="white"/>
<circle cx="34" cy="18" r="2" fill="white"/>
<circle cx="50" cy="18" r="2" fill="white"/>
<circle cx="66" cy="18" r="2" fill="white"/>
<circle cx="82" cy="18" r="2" fill="white"/>
<circle cx="98" cy="18" r="2" fill="white"/>
<circle cx="114" cy="18" r="2" fill="white"/>
<circle cx="130" cy="18" r="2" fill="white"/>
<circle cx="146" cy="18" r="2" fill="white"/>
<circle cx="162" cy="18" r="2" fill="white"/>
<circle cx="178" cy="18" r="2" fill="white"/>
<circle cx="194" cy="18" r="2" fill="white"/>
<circle cx="210" cy="18" r="2" fill="white"/>
<circle cx="226" cy="18" r="2" fill="white"/>
<circle cx="242" cy="18" r="2" fill="white"/>
<circle cx="258" cy="18" r="2" fill="white"/>
<circle cx="274" cy="18" r="2" fill="white"/>
<circle cx="290" cy="18" r="2" fill="white"/>
<circle cx="306" cy="18" r="2" fill="white"/>
<circle cx="322" cy="18" r="2" fill="white"/>
<circle cx="338" cy="18" r="2" fill="white"/>
<circle cx="354" cy="18" r="2" fill="white"/>
<circle cx="370" cy="18" r="2" fill="white"/>
<circle cx="386" cy="18" r="2" fill="white"/>
<circle cx="402" cy="18" r="2" fill="white"/>
<circle cx="418" cy="18" r="2" fill="white"/>
<circle cx="434" cy="18" r="2" fill="white"/>
<circle cx="450" cy="18" r="2" fill="white"/>
<circle cx="466" cy="18" r="2" fill="white"/>
</g>
<g opacity="0.2">
<circle cx="2" cy="34" r="2" fill="white"/>
<circle cx="18" cy="34" r="2" fill="white"/>
<circle cx="34" cy="34" r="2" fill="white"/>
<circle cx="50" cy="34" r="2" fill="white"/>
<circle cx="66" cy="34" r="2" fill="white"/>
<circle cx="82" cy="34" r="2" fill="white"/>
<circle cx="98" cy="34" r="2" fill="white"/>
<circle cx="114" cy="34" r="2" fill="white"/>
<circle cx="130" cy="34" r="2" fill="white"/>
<circle cx="146" cy="34" r="2" fill="white"/>
<circle cx="162" cy="34" r="2" fill="white"/>
<circle cx="178" cy="34" r="2" fill="white"/>
<circle cx="194" cy="34" r="2" fill="white"/>
<circle cx="210" cy="34" r="2" fill="white"/>
<circle cx="226" cy="34" r="2" fill="white"/>
<circle cx="242" cy="34" r="2" fill="white"/>
<circle cx="258" cy="34" r="2" fill="white"/>
<circle cx="274" cy="34" r="2" fill="white"/>
<circle cx="290" cy="34" r="2" fill="white"/>
<circle cx="306" cy="34" r="2" fill="white"/>
<circle cx="322" cy="34" r="2" fill="white"/>
<circle cx="338" cy="34" r="2" fill="white"/>
<circle cx="354" cy="34" r="2" fill="white"/>
<circle cx="370" cy="34" r="2" fill="white"/>
<circle cx="386" cy="34" r="2" fill="white"/>
<circle cx="402" cy="34" r="2" fill="white"/>
<circle cx="418" cy="34" r="2" fill="white"/>
<circle cx="434" cy="34" r="2" fill="white"/>
<circle cx="450" cy="34" r="2" fill="white"/>
<circle cx="466" cy="34" r="2" fill="white"/>
</g>
<g opacity="0.2">
<circle cx="2" cy="50" r="2" fill="white"/>
<circle cx="18" cy="50" r="2" fill="white"/>
<circle cx="34" cy="50" r="2" fill="white"/>
<circle cx="50" cy="50" r="2" fill="white"/>
<circle cx="66" cy="50" r="2" fill="white"/>
<circle cx="82" cy="50" r="2" fill="white"/>
<circle cx="98" cy="50" r="2" fill="white"/>
<circle cx="114" cy="50" r="2" fill="white"/>
<circle cx="130" cy="50" r="2" fill="white"/>
<circle cx="146" cy="50" r="2" fill="white"/>
<circle cx="162" cy="50" r="2" fill="white"/>
<circle cx="178" cy="50" r="2" fill="white"/>
<circle cx="194" cy="50" r="2" fill="white"/>
<circle cx="210" cy="50" r="2" fill="white"/>
<circle cx="226" cy="50" r="2" fill="white"/>
<circle cx="242" cy="50" r="2" fill="white"/>
<circle cx="258" cy="50" r="2" fill="white"/>
<circle cx="274" cy="50" r="2" fill="white"/>
<circle cx="290" cy="50" r="2" fill="white"/>
<circle cx="306" cy="50" r="2" fill="white"/>
<circle cx="322" cy="50" r="2" fill="white"/>
<circle cx="338" cy="50" r="2" fill="white"/>
<circle cx="354" cy="50" r="2" fill="white"/>
<circle cx="370" cy="50" r="2" fill="white"/>
<circle cx="386" cy="50" r="2" fill="white"/>
<circle cx="402" cy="50" r="2" fill="white"/>
<circle cx="418" cy="50" r="2" fill="white"/>
<circle cx="434" cy="50" r="2" fill="white"/>
<circle cx="450" cy="50" r="2" fill="white"/>
<circle cx="466" cy="50" r="2" fill="white"/>
</g>
<g opacity="0.2">
<circle cx="2" cy="66" r="2" fill="white"/>
<circle cx="18" cy="66" r="2" fill="white"/>
<circle cx="34" cy="66" r="2" fill="white"/>
<circle cx="50" cy="66" r="2" fill="white"/>
<circle cx="66" cy="66" r="2" fill="white"/>
<circle cx="82" cy="66" r="2" fill="white"/>
<circle cx="98" cy="66" r="2" fill="white"/>
<circle cx="114" cy="66" r="2" fill="white"/>
<circle cx="130" cy="66" r="2" fill="white"/>
<circle cx="146" cy="66" r="2" fill="white"/>
<circle cx="162" cy="66" r="2" fill="white"/>
<circle cx="178" cy="66" r="2" fill="white"/>
<circle cx="194" cy="66" r="2" fill="white"/>
<circle cx="210" cy="66" r="2" fill="white"/>
<circle cx="226" cy="66" r="2" fill="white"/>
<circle cx="242" cy="66" r="2" fill="white"/>
<circle cx="258" cy="66" r="2" fill="white"/>
<circle cx="274" cy="66" r="2" fill="white"/>
<circle cx="290" cy="66" r="2" fill="white"/>
<circle cx="306" cy="66" r="2" fill="white"/>
<circle cx="322" cy="66" r="2" fill="white"/>
<circle cx="338" cy="66" r="2" fill="white"/>
<circle cx="354" cy="66" r="2" fill="white"/>
<circle cx="370" cy="66" r="2" fill="white"/>
<circle cx="386" cy="66" r="2" fill="white"/>
<circle cx="402" cy="66" r="2" fill="white"/>
<circle cx="418" cy="66" r="2" fill="white"/>
<circle cx="434" cy="66" r="2" fill="white"/>
<circle cx="450" cy="66" r="2" fill="white"/>
<circle cx="466" cy="66" r="2" fill="white"/>
</g>
<g opacity="0.2">
<circle cx="2" cy="82" r="2" fill="white"/>
<circle cx="18" cy="82" r="2" fill="white"/>
<circle cx="34" cy="82" r="2" fill="white"/>
<circle cx="50" cy="82" r="2" fill="white"/>
<circle cx="66" cy="82" r="2" fill="white"/>
<circle cx="82" cy="82" r="2" fill="white"/>
<circle cx="98" cy="82" r="2" fill="white"/>
<circle cx="114" cy="82" r="2" fill="white"/>
<circle cx="130" cy="82" r="2" fill="white"/>
<circle cx="146" cy="82" r="2" fill="white"/>
<circle cx="162" cy="82" r="2" fill="white"/>
<circle cx="178" cy="82" r="2" fill="white"/>
<circle cx="194" cy="82" r="2" fill="white"/>
<circle cx="210" cy="82" r="2" fill="white"/>
<circle cx="226" cy="82" r="2" fill="white"/>
<circle cx="242" cy="82" r="2" fill="white"/>
<circle cx="258" cy="82" r="2" fill="white"/>
<circle cx="274" cy="82" r="2" fill="white"/>
<circle cx="290" cy="82" r="2" fill="white"/>
<circle cx="306" cy="82" r="2" fill="white"/>
<circle cx="322" cy="82" r="2" fill="white"/>
<circle cx="338" cy="82" r="2" fill="white"/>
<circle cx="354" cy="82" r="2" fill="white"/>
<circle cx="370" cy="82" r="2" fill="white"/>
<circle cx="386" cy="82" r="2" fill="white"/>
<circle cx="402" cy="82" r="2" fill="white"/>
<circle cx="418" cy="82" r="2" fill="white"/>
<circle cx="434" cy="82" r="2" fill="white"/>
<circle cx="450" cy="82" r="2" fill="white"/>
<circle cx="466" cy="82" r="2" fill="white"/>
</g>
<g opacity="0.2">
<circle cx="2" cy="98" r="2" fill="white"/>
<circle cx="18" cy="98" r="2" fill="white"/>
<circle cx="34" cy="98" r="2" fill="white"/>
<circle cx="50" cy="98" r="2" fill="white"/>
<circle cx="66" cy="98" r="2" fill="white"/>
<circle cx="82" cy="98" r="2" fill="white"/>
<circle cx="98" cy="98" r="2" fill="white"/>
<circle cx="114" cy="98" r="2" fill="white"/>
<circle cx="130" cy="98" r="2" fill="white"/>
<circle cx="146" cy="98" r="2" fill="white"/>
<circle cx="162" cy="98" r="2" fill="white"/>
<circle cx="178" cy="98" r="2" fill="white"/>
<circle cx="194" cy="98" r="2" fill="white"/>
<circle cx="210" cy="98" r="2" fill="white"/>
<circle cx="226" cy="98" r="2" fill="white"/>
<circle cx="242" cy="98" r="2" fill="white"/>
<circle cx="258" cy="98" r="2" fill="white"/>
<circle cx="274" cy="98" r="2" fill="white"/>
<circle cx="290" cy="98" r="2" fill="white"/>
<circle cx="306" cy="98" r="2" fill="white"/>
<circle cx="322" cy="98" r="2" fill="white"/>
<circle cx="338" cy="98" r="2" fill="white"/>
<circle cx="354" cy="98" r="2" fill="white"/>
<circle cx="370" cy="98" r="2" fill="white"/>
<circle cx="386" cy="98" r="2" fill="white"/>
<circle cx="402" cy="98" r="2" fill="white"/>
<circle cx="418" cy="98" r="2" fill="white"/>
<circle cx="434" cy="98" r="2" fill="white"/>
<circle cx="450" cy="98" r="2" fill="white"/>
<circle cx="466" cy="98" r="2" fill="white"/>
</g>
<g opacity="0.2">
<circle cx="2" cy="114" r="2" fill="white"/>
<circle cx="18" cy="114" r="2" fill="white"/>
<circle cx="34" cy="114" r="2" fill="white"/>
<circle cx="50" cy="114" r="2" fill="white"/>
<circle cx="66" cy="114" r="2" fill="white"/>
<circle cx="82" cy="114" r="2" fill="white"/>
<circle cx="98" cy="114" r="2" fill="white"/>
<circle cx="114" cy="114" r="2" fill="white"/>
<circle cx="130" cy="114" r="2" fill="white"/>
<circle cx="146" cy="114" r="2" fill="white"/>
<circle cx="162" cy="114" r="2" fill="white"/>
<circle cx="178" cy="114" r="2" fill="white"/>
<circle cx="194" cy="114" r="2" fill="white"/>
<circle cx="210" cy="114" r="2" fill="white"/>
<circle cx="226" cy="114" r="2" fill="white"/>
<circle cx="242" cy="114" r="2" fill="white"/>
<circle cx="258" cy="114" r="2" fill="white"/>
<circle cx="274" cy="114" r="2" fill="white"/>
<circle cx="290" cy="114" r="2" fill="white"/>
<circle cx="306" cy="114" r="2" fill="white"/>
<circle cx="322" cy="114" r="2" fill="white"/>
<circle cx="338" cy="114" r="2" fill="white"/>
<circle cx="354" cy="114" r="2" fill="white"/>
<circle cx="370" cy="114" r="2" fill="white"/>
<circle cx="386" cy="114" r="2" fill="white"/>
<circle cx="402" cy="114" r="2" fill="white"/>
<circle cx="418" cy="114" r="2" fill="white"/>
<circle cx="434" cy="114" r="2" fill="white"/>
<circle cx="450" cy="114" r="2" fill="white"/>
<circle cx="466" cy="114" r="2" fill="white"/>
</g>
<g opacity="0.2">
<circle cx="2" cy="130" r="2" fill="white"/>
<circle cx="18" cy="130" r="2" fill="white"/>
<circle cx="34" cy="130" r="2" fill="white"/>
<circle cx="50" cy="130" r="2" fill="white"/>
<circle cx="66" cy="130" r="2" fill="white"/>
<circle cx="82" cy="130" r="2" fill="white"/>
<circle cx="98" cy="130" r="2" fill="white"/>
<circle cx="114" cy="130" r="2" fill="white"/>
<circle cx="130" cy="130" r="2" fill="white"/>
<circle cx="146" cy="130" r="2" fill="white"/>
<circle cx="162" cy="130" r="2" fill="white"/>
<circle cx="178" cy="130" r="2" fill="white"/>
<circle cx="194" cy="130" r="2" fill="white"/>
<circle cx="210" cy="130" r="2" fill="white"/>
<circle cx="226" cy="130" r="2" fill="white"/>
<circle cx="242" cy="130" r="2" fill="white"/>
<circle cx="258" cy="130" r="2" fill="white"/>
<circle cx="274" cy="130" r="2" fill="white"/>
<circle cx="290" cy="130" r="2" fill="white"/>
<circle cx="306" cy="130" r="2" fill="white"/>
<circle cx="322" cy="130" r="2" fill="white"/>
<circle cx="338" cy="130" r="2" fill="white"/>
<circle cx="354" cy="130" r="2" fill="white"/>
<circle cx="370" cy="130" r="2" fill="white"/>
<circle cx="386" cy="130" r="2" fill="white"/>
<circle cx="402" cy="130" r="2" fill="white"/>
<circle cx="418" cy="130" r="2" fill="white"/>
<circle cx="434" cy="130" r="2" fill="white"/>
<circle cx="450" cy="130" r="2" fill="white"/>
<circle cx="466" cy="130" r="2" fill="white"/>
</g>
<g opacity="0.2">
<circle cx="2" cy="146" r="2" fill="white"/>
<circle cx="18" cy="146" r="2" fill="white"/>
<circle cx="34" cy="146" r="2" fill="white"/>
<circle cx="50" cy="146" r="2" fill="white"/>
<circle cx="66" cy="146" r="2" fill="white"/>
<circle cx="82" cy="146" r="2" fill="white"/>
<circle cx="98" cy="146" r="2" fill="white"/>
<circle cx="114" cy="146" r="2" fill="white"/>
<circle cx="130" cy="146" r="2" fill="white"/>
<circle cx="146" cy="146" r="2" fill="white"/>
<circle cx="162" cy="146" r="2" fill="white"/>
<circle cx="178" cy="146" r="2" fill="white"/>
<circle cx="194" cy="146" r="2" fill="white"/>
<circle cx="210" cy="146" r="2" fill="white"/>
<circle cx="226" cy="146" r="2" fill="white"/>
<circle cx="242" cy="146" r="2" fill="white"/>
<circle cx="258" cy="146" r="2" fill="white"/>
<circle cx="274" cy="146" r="2" fill="white"/>
<circle cx="290" cy="146" r="2" fill="white"/>
<circle cx="306" cy="146" r="2" fill="white"/>
<circle cx="322" cy="146" r="2" fill="white"/>
<circle cx="338" cy="146" r="2" fill="white"/>
<circle cx="354" cy="146" r="2" fill="white"/>
<circle cx="370" cy="146" r="2" fill="white"/>
<circle cx="386" cy="146" r="2" fill="white"/>
<circle cx="402" cy="146" r="2" fill="white"/>
<circle cx="418" cy="146" r="2" fill="white"/>
<circle cx="434" cy="146" r="2" fill="white"/>
<circle cx="450" cy="146" r="2" fill="white"/>
<circle cx="466" cy="146" r="2" fill="white"/>
</g>
<g opacity="0.2">
<circle cx="2" cy="162" r="2" fill="white"/>
<circle cx="18" cy="162" r="2" fill="white"/>
<circle cx="34" cy="162" r="2" fill="white"/>
<circle cx="50" cy="162" r="2" fill="white"/>
<circle cx="66" cy="162" r="2" fill="white"/>
<circle cx="82" cy="162" r="2" fill="white"/>
<circle cx="98" cy="162" r="2" fill="white"/>
<circle cx="114" cy="162" r="2" fill="white"/>
<circle cx="130" cy="162" r="2" fill="white"/>
<circle cx="146" cy="162" r="2" fill="white"/>
<circle cx="162" cy="162" r="2" fill="white"/>
<circle cx="178" cy="162" r="2" fill="white"/>
<circle cx="194" cy="162" r="2" fill="white"/>
<circle cx="210" cy="162" r="2" fill="white"/>
<circle cx="226" cy="162" r="2" fill="white"/>
<circle cx="242" cy="162" r="2" fill="white"/>
<circle cx="258" cy="162" r="2" fill="white"/>
<circle cx="274" cy="162" r="2" fill="white"/>
<circle cx="290" cy="162" r="2" fill="white"/>
<circle cx="306" cy="162" r="2" fill="white"/>
<circle cx="322" cy="162" r="2" fill="white"/>
<circle cx="338" cy="162" r="2" fill="white"/>
<circle cx="354" cy="162" r="2" fill="white"/>
<circle cx="370" cy="162" r="2" fill="white"/>
<circle cx="386" cy="162" r="2" fill="white"/>
<circle cx="402" cy="162" r="2" fill="white"/>
<circle cx="418" cy="162" r="2" fill="white"/>
<circle cx="434" cy="162" r="2" fill="white"/>
<circle cx="450" cy="162" r="2" fill="white"/>
<circle cx="466" cy="162" r="2" fill="white"/>
</g>
<g opacity="0.2">
<circle cx="2" cy="178" r="2" fill="white"/>
<circle cx="18" cy="178" r="2" fill="white"/>
<circle cx="34" cy="178" r="2" fill="white"/>
<circle cx="50" cy="178" r="2" fill="white"/>
<circle cx="66" cy="178" r="2" fill="white"/>
<circle cx="82" cy="178" r="2" fill="white"/>
<circle cx="98" cy="178" r="2" fill="white"/>
<circle cx="114" cy="178" r="2" fill="white"/>
<circle cx="130" cy="178" r="2" fill="white"/>
<circle cx="146" cy="178" r="2" fill="white"/>
<circle cx="162" cy="178" r="2" fill="white"/>
<circle cx="178" cy="178" r="2" fill="white"/>
<circle cx="194" cy="178" r="2" fill="white"/>
<circle cx="210" cy="178" r="2" fill="white"/>
<circle cx="226" cy="178" r="2" fill="white"/>
<circle cx="242" cy="178" r="2" fill="white"/>
<circle cx="258" cy="178" r="2" fill="white"/>
<circle cx="274" cy="178" r="2" fill="white"/>
<circle cx="290" cy="178" r="2" fill="white"/>
<circle cx="306" cy="178" r="2" fill="white"/>
<circle cx="322" cy="178" r="2" fill="white"/>
<circle cx="338" cy="178" r="2" fill="white"/>
<circle cx="354" cy="178" r="2" fill="white"/>
<circle cx="370" cy="178" r="2" fill="white"/>
<circle cx="386" cy="178" r="2" fill="white"/>
<circle cx="402" cy="178" r="2" fill="white"/>
<circle cx="418" cy="178" r="2" fill="white"/>
<circle cx="434" cy="178" r="2" fill="white"/>
<circle cx="450" cy="178" r="2" fill="white"/>
<circle cx="466" cy="178" r="2" fill="white"/>
</g>
<g opacity="0.2">
<circle cx="2" cy="194" r="2" fill="white"/>
<circle cx="18" cy="194" r="2" fill="white"/>
<circle cx="34" cy="194" r="2" fill="white"/>
<circle cx="50" cy="194" r="2" fill="white"/>
<circle cx="66" cy="194" r="2" fill="white"/>
<circle cx="82" cy="194" r="2" fill="white"/>
<circle cx="98" cy="194" r="2" fill="white"/>
<circle cx="114" cy="194" r="2" fill="white"/>
<circle cx="130" cy="194" r="2" fill="white"/>
<circle cx="146" cy="194" r="2" fill="white"/>
<circle cx="162" cy="194" r="2" fill="white"/>
<circle cx="178" cy="194" r="2" fill="white"/>
<circle cx="194" cy="194" r="2" fill="white"/>
<circle cx="210" cy="194" r="2" fill="white"/>
<circle cx="226" cy="194" r="2" fill="white"/>
<circle cx="242" cy="194" r="2" fill="white"/>
<circle cx="258" cy="194" r="2" fill="white"/>
<circle cx="274" cy="194" r="2" fill="white"/>
<circle cx="290" cy="194" r="2" fill="white"/>
<circle cx="306" cy="194" r="2" fill="white"/>
<circle cx="322" cy="194" r="2" fill="white"/>
<circle cx="338" cy="194" r="2" fill="white"/>
<circle cx="354" cy="194" r="2" fill="white"/>
<circle cx="370" cy="194" r="2" fill="white"/>
<circle cx="386" cy="194" r="2" fill="white"/>
<circle cx="402" cy="194" r="2" fill="white"/>
<circle cx="418" cy="194" r="2" fill="white"/>
<circle cx="434" cy="194" r="2" fill="white"/>
<circle cx="450" cy="194" r="2" fill="white"/>
<circle cx="466" cy="194" r="2" fill="white"/>
</g>
<g opacity="0.2">
<circle cx="2" cy="210" r="2" fill="white"/>
<circle cx="18" cy="210" r="2" fill="white"/>
<circle cx="34" cy="210" r="2" fill="white"/>
<circle cx="50" cy="210" r="2" fill="white"/>
<circle cx="66" cy="210" r="2" fill="white"/>
<circle cx="82" cy="210" r="2" fill="white"/>
<circle cx="98" cy="210" r="2" fill="white"/>
<circle cx="114" cy="210" r="2" fill="white"/>
<circle cx="130" cy="210" r="2" fill="white"/>
<circle cx="146" cy="210" r="2" fill="white"/>
<circle cx="162" cy="210" r="2" fill="white"/>
<circle cx="178" cy="210" r="2" fill="white"/>
<circle cx="194" cy="210" r="2" fill="white"/>
<circle cx="210" cy="210" r="2" fill="white"/>
<circle cx="226" cy="210" r="2" fill="white"/>
<circle cx="242" cy="210" r="2" fill="white"/>
<circle cx="258" cy="210" r="2" fill="white"/>
<circle cx="274" cy="210" r="2" fill="white"/>
<circle cx="290" cy="210" r="2" fill="white"/>
<circle cx="306" cy="210" r="2" fill="white"/>
<circle cx="322" cy="210" r="2" fill="white"/>
<circle cx="338" cy="210" r="2" fill="white"/>
<circle cx="354" cy="210" r="2" fill="white"/>
<circle cx="370" cy="210" r="2" fill="white"/>
<circle cx="386" cy="210" r="2" fill="white"/>
<circle cx="402" cy="210" r="2" fill="white"/>
<circle cx="418" cy="210" r="2" fill="white"/>
<circle cx="434" cy="210" r="2" fill="white"/>
<circle cx="450" cy="210" r="2" fill="white"/>
<circle cx="466" cy="210" r="2" fill="white"/>
</g>
<g opacity="0.2">
<circle cx="2" cy="226" r="2" fill="white"/>
<circle cx="18" cy="226" r="2" fill="white"/>
<circle cx="34" cy="226" r="2" fill="white"/>
<circle cx="50" cy="226" r="2" fill="white"/>
<circle cx="66" cy="226" r="2" fill="white"/>
<circle cx="82" cy="226" r="2" fill="white"/>
<circle cx="98" cy="226" r="2" fill="white"/>
<circle cx="114" cy="226" r="2" fill="white"/>
<circle cx="130" cy="226" r="2" fill="white"/>
<circle cx="146" cy="226" r="2" fill="white"/>
<circle cx="162" cy="226" r="2" fill="white"/>
<circle cx="178" cy="226" r="2" fill="white"/>
<circle cx="194" cy="226" r="2" fill="white"/>
<circle cx="210" cy="226" r="2" fill="white"/>
<circle cx="226" cy="226" r="2" fill="white"/>
<circle cx="242" cy="226" r="2" fill="white"/>
<circle cx="258" cy="226" r="2" fill="white"/>
<circle cx="274" cy="226" r="2" fill="white"/>
<circle cx="290" cy="226" r="2" fill="white"/>
<circle cx="306" cy="226" r="2" fill="white"/>
<circle cx="322" cy="226" r="2" fill="white"/>
<circle cx="338" cy="226" r="2" fill="white"/>
<circle cx="354" cy="226" r="2" fill="white"/>
<circle cx="370" cy="226" r="2" fill="white"/>
<circle cx="386" cy="226" r="2" fill="white"/>
<circle cx="402" cy="226" r="2" fill="white"/>
<circle cx="418" cy="226" r="2" fill="white"/>
<circle cx="434" cy="226" r="2" fill="white"/>
<circle cx="450" cy="226" r="2" fill="white"/>
<circle cx="466" cy="226" r="2" fill="white"/>
</g>
<g opacity="0.2">
<circle cx="2" cy="242" r="2" fill="white"/>
<circle cx="18" cy="242" r="2" fill="white"/>
<circle cx="34" cy="242" r="2" fill="white"/>
<circle cx="50" cy="242" r="2" fill="white"/>
<circle cx="66" cy="242" r="2" fill="white"/>
<circle cx="82" cy="242" r="2" fill="white"/>
<circle cx="98" cy="242" r="2" fill="white"/>
<circle cx="114" cy="242" r="2" fill="white"/>
<circle cx="130" cy="242" r="2" fill="white"/>
<circle cx="146" cy="242" r="2" fill="white"/>
<circle cx="162" cy="242" r="2" fill="white"/>
<circle cx="178" cy="242" r="2" fill="white"/>
<circle cx="194" cy="242" r="2" fill="white"/>
<circle cx="210" cy="242" r="2" fill="white"/>
<circle cx="226" cy="242" r="2" fill="white"/>
<circle cx="242" cy="242" r="2" fill="white"/>
<circle cx="258" cy="242" r="2" fill="white"/>
<circle cx="274" cy="242" r="2" fill="white"/>
<circle cx="290" cy="242" r="2" fill="white"/>
<circle cx="306" cy="242" r="2" fill="white"/>
<circle cx="322" cy="242" r="2" fill="white"/>
<circle cx="338" cy="242" r="2" fill="white"/>
<circle cx="354" cy="242" r="2" fill="white"/>
<circle cx="370" cy="242" r="2" fill="white"/>
<circle cx="386" cy="242" r="2" fill="white"/>
<circle cx="402" cy="242" r="2" fill="white"/>
<circle cx="418" cy="242" r="2" fill="white"/>
<circle cx="434" cy="242" r="2" fill="white"/>
<circle cx="450" cy="242" r="2" fill="white"/>
<circle cx="466" cy="242" r="2" fill="white"/>
</g>
<g opacity="0.2">
<circle cx="2" cy="258" r="2" fill="white"/>
<circle cx="18" cy="258" r="2" fill="white"/>
<circle cx="34" cy="258" r="2" fill="white"/>
<circle cx="50" cy="258" r="2" fill="white"/>
<circle cx="66" cy="258" r="2" fill="white"/>
<circle cx="82" cy="258" r="2" fill="white"/>
<circle cx="98" cy="258" r="2" fill="white"/>
<circle cx="114" cy="258" r="2" fill="white"/>
<circle cx="130" cy="258" r="2" fill="white"/>
<circle cx="146" cy="258" r="2" fill="white"/>
<circle cx="162" cy="258" r="2" fill="white"/>
<circle cx="178" cy="258" r="2" fill="white"/>
<circle cx="194" cy="258" r="2" fill="white"/>
<circle cx="210" cy="258" r="2" fill="white"/>
<circle cx="226" cy="258" r="2" fill="white"/>
<circle cx="242" cy="258" r="2" fill="white"/>
<circle cx="258" cy="258" r="2" fill="white"/>
<circle cx="274" cy="258" r="2" fill="white"/>
<circle cx="290" cy="258" r="2" fill="white"/>
<circle cx="306" cy="258" r="2" fill="white"/>
<circle cx="322" cy="258" r="2" fill="white"/>
<circle cx="338" cy="258" r="2" fill="white"/>
<circle cx="354" cy="258" r="2" fill="white"/>
<circle cx="370" cy="258" r="2" fill="white"/>
<circle cx="386" cy="258" r="2" fill="white"/>
<circle cx="402" cy="258" r="2" fill="white"/>
<circle cx="418" cy="258" r="2" fill="white"/>
<circle cx="434" cy="258" r="2" fill="white"/>
<circle cx="450" cy="258" r="2" fill="white"/>
<circle cx="466" cy="258" r="2" fill="white"/>
</g>
<g opacity="0.2">
<circle cx="2" cy="274" r="2" fill="white"/>
<circle cx="18" cy="274" r="2" fill="white"/>
<circle cx="34" cy="274" r="2" fill="white"/>
<circle cx="50" cy="274" r="2" fill="white"/>
<circle cx="66" cy="274" r="2" fill="white"/>
<circle cx="82" cy="274" r="2" fill="white"/>
<circle cx="98" cy="274" r="2" fill="white"/>
<circle cx="114" cy="274" r="2" fill="white"/>
<circle cx="130" cy="274" r="2" fill="white"/>
<circle cx="146" cy="274" r="2" fill="white"/>
<circle cx="162" cy="274" r="2" fill="white"/>
<circle cx="178" cy="274" r="2" fill="white"/>
<circle cx="194" cy="274" r="2" fill="white"/>
<circle cx="210" cy="274" r="2" fill="white"/>
<circle cx="226" cy="274" r="2" fill="white"/>
<circle cx="242" cy="274" r="2" fill="white"/>
<circle cx="258" cy="274" r="2" fill="white"/>
<circle cx="274" cy="274" r="2" fill="white"/>
<circle cx="290" cy="274" r="2" fill="white"/>
<circle cx="306" cy="274" r="2" fill="white"/>
<circle cx="322" cy="274" r="2" fill="white"/>
<circle cx="338" cy="274" r="2" fill="white"/>
<circle cx="354" cy="274" r="2" fill="white"/>
<circle cx="370" cy="274" r="2" fill="white"/>
<circle cx="386" cy="274" r="2" fill="white"/>
<circle cx="402" cy="274" r="2" fill="white"/>
<circle cx="418" cy="274" r="2" fill="white"/>
<circle cx="434" cy="274" r="2" fill="white"/>
<circle cx="450" cy="274" r="2" fill="white"/>
<circle cx="466" cy="274" r="2" fill="white"/>
</g>
<g opacity="0.2">
<circle cx="2" cy="290" r="2" fill="white"/>
<circle cx="18" cy="290" r="2" fill="white"/>
<circle cx="34" cy="290" r="2" fill="white"/>
<circle cx="50" cy="290" r="2" fill="white"/>
<circle cx="66" cy="290" r="2" fill="white"/>
<circle cx="82" cy="290" r="2" fill="white"/>
<circle cx="98" cy="290" r="2" fill="white"/>
<circle cx="114" cy="290" r="2" fill="white"/>
<circle cx="130" cy="290" r="2" fill="white"/>
<circle cx="146" cy="290" r="2" fill="white"/>
<circle cx="162" cy="290" r="2" fill="white"/>
<circle cx="178" cy="290" r="2" fill="white"/>
<circle cx="194" cy="290" r="2" fill="white"/>
<circle cx="210" cy="290" r="2" fill="white"/>
<circle cx="226" cy="290" r="2" fill="white"/>
<circle cx="242" cy="290" r="2" fill="white"/>
<circle cx="258" cy="290" r="2" fill="white"/>
<circle cx="274" cy="290" r="2" fill="white"/>
<circle cx="290" cy="290" r="2" fill="white"/>
<circle cx="306" cy="290" r="2" fill="white"/>
<circle cx="322" cy="290" r="2" fill="white"/>
<circle cx="338" cy="290" r="2" fill="white"/>
<circle cx="354" cy="290" r="2" fill="white"/>
<circle cx="370" cy="290" r="2" fill="white"/>
<circle cx="386" cy="290" r="2" fill="white"/>
<circle cx="402" cy="290" r="2" fill="white"/>
<circle cx="418" cy="290" r="2" fill="white"/>
<circle cx="434" cy="290" r="2" fill="white"/>
<circle cx="450" cy="290" r="2" fill="white"/>
<circle cx="466" cy="290" r="2" fill="white"/>
</g>
<g opacity="0.2">
<circle cx="2" cy="306" r="2" fill="white"/>
<circle cx="18" cy="306" r="2" fill="white"/>
<circle cx="34" cy="306" r="2" fill="white"/>
<circle cx="50" cy="306" r="2" fill="white"/>
<circle cx="66" cy="306" r="2" fill="white"/>
<circle cx="82" cy="306" r="2" fill="white"/>
<circle cx="98" cy="306" r="2" fill="white"/>
<circle cx="114" cy="306" r="2" fill="white"/>
<circle cx="130" cy="306" r="2" fill="white"/>
<circle cx="146" cy="306" r="2" fill="white"/>
<circle cx="162" cy="306" r="2" fill="white"/>
<circle cx="178" cy="306" r="2" fill="white"/>
<circle cx="194" cy="306" r="2" fill="white"/>
<circle cx="210" cy="306" r="2" fill="white"/>
<circle cx="226" cy="306" r="2" fill="white"/>
<circle cx="242" cy="306" r="2" fill="white"/>
<circle cx="258" cy="306" r="2" fill="white"/>
<circle cx="274" cy="306" r="2" fill="white"/>
<circle cx="290" cy="306" r="2" fill="white"/>
<circle cx="306" cy="306" r="2" fill="white"/>
<circle cx="322" cy="306" r="2" fill="white"/>
<circle cx="338" cy="306" r="2" fill="white"/>
<circle cx="354" cy="306" r="2" fill="white"/>
<circle cx="370" cy="306" r="2" fill="white"/>
<circle cx="386" cy="306" r="2" fill="white"/>
<circle cx="402" cy="306" r="2" fill="white"/>
<circle cx="418" cy="306" r="2" fill="white"/>
<circle cx="434" cy="306" r="2" fill="white"/>
<circle cx="450" cy="306" r="2" fill="white"/>
<circle cx="466" cy="306" r="2" fill="white"/>
</g>
<g opacity="0.2">
<circle cx="2" cy="322" r="2" fill="white"/>
<circle cx="18" cy="322" r="2" fill="white"/>
<circle cx="34" cy="322" r="2" fill="white"/>
<circle cx="50" cy="322" r="2" fill="white"/>
<circle cx="66" cy="322" r="2" fill="white"/>
<circle cx="82" cy="322" r="2" fill="white"/>
<circle cx="98" cy="322" r="2" fill="white"/>
<circle cx="114" cy="322" r="2" fill="white"/>
<circle cx="130" cy="322" r="2" fill="white"/>
<circle cx="146" cy="322" r="2" fill="white"/>
<circle cx="162" cy="322" r="2" fill="white"/>
<circle cx="178" cy="322" r="2" fill="white"/>
<circle cx="194" cy="322" r="2" fill="white"/>
<circle cx="210" cy="322" r="2" fill="white"/>
<circle cx="226" cy="322" r="2" fill="white"/>
<circle cx="242" cy="322" r="2" fill="white"/>
<circle cx="258" cy="322" r="2" fill="white"/>
<circle cx="274" cy="322" r="2" fill="white"/>
<circle cx="290" cy="322" r="2" fill="white"/>
<circle cx="306" cy="322" r="2" fill="white"/>
<circle cx="322" cy="322" r="2" fill="white"/>
<circle cx="338" cy="322" r="2" fill="white"/>
<circle cx="354" cy="322" r="2" fill="white"/>
<circle cx="370" cy="322" r="2" fill="white"/>
<circle cx="386" cy="322" r="2" fill="white"/>
<circle cx="402" cy="322" r="2" fill="white"/>
<circle cx="418" cy="322" r="2" fill="white"/>
<circle cx="434" cy="322" r="2" fill="white"/>
<circle cx="450" cy="322" r="2" fill="white"/>
<circle cx="466" cy="322" r="2" fill="white"/>
</g>
<g opacity="0.2">
<circle cx="2" cy="338" r="2" fill="white"/>
<circle cx="18" cy="338" r="2" fill="white"/>
<circle cx="34" cy="338" r="2" fill="white"/>
<circle cx="50" cy="338" r="2" fill="white"/>
<circle cx="66" cy="338" r="2" fill="white"/>
<circle cx="82" cy="338" r="2" fill="white"/>
<circle cx="98" cy="338" r="2" fill="white"/>
<circle cx="114" cy="338" r="2" fill="white"/>
<circle cx="130" cy="338" r="2" fill="white"/>
<circle cx="146" cy="338" r="2" fill="white"/>
<circle cx="162" cy="338" r="2" fill="white"/>
<circle cx="178" cy="338" r="2" fill="white"/>
<circle cx="194" cy="338" r="2" fill="white"/>
<circle cx="210" cy="338" r="2" fill="white"/>
<circle cx="226" cy="338" r="2" fill="white"/>
<circle cx="242" cy="338" r="2" fill="white"/>
<circle cx="258" cy="338" r="2" fill="white"/>
<circle cx="274" cy="338" r="2" fill="white"/>
<circle cx="290" cy="338" r="2" fill="white"/>
<circle cx="306" cy="338" r="2" fill="white"/>
<circle cx="322" cy="338" r="2" fill="white"/>
<circle cx="338" cy="338" r="2" fill="white"/>
<circle cx="354" cy="338" r="2" fill="white"/>
<circle cx="370" cy="338" r="2" fill="white"/>
<circle cx="386" cy="338" r="2" fill="white"/>
<circle cx="402" cy="338" r="2" fill="white"/>
<circle cx="418" cy="338" r="2" fill="white"/>
<circle cx="434" cy="338" r="2" fill="white"/>
<circle cx="450" cy="338" r="2" fill="white"/>
<circle cx="466" cy="338" r="2" fill="white"/>
</g>
<g opacity="0.2">
<circle cx="2" cy="354" r="2" fill="white"/>
<circle cx="18" cy="354" r="2" fill="white"/>
<circle cx="34" cy="354" r="2" fill="white"/>
<circle cx="50" cy="354" r="2" fill="white"/>
<circle cx="66" cy="354" r="2" fill="white"/>
<circle cx="82" cy="354" r="2" fill="white"/>
<circle cx="98" cy="354" r="2" fill="white"/>
<circle cx="114" cy="354" r="2" fill="white"/>
<circle cx="130" cy="354" r="2" fill="white"/>
<circle cx="146" cy="354" r="2" fill="white"/>
<circle cx="162" cy="354" r="2" fill="white"/>
<circle cx="178" cy="354" r="2" fill="white"/>
<circle cx="194" cy="354" r="2" fill="white"/>
<circle cx="210" cy="354" r="2" fill="white"/>
<circle cx="226" cy="354" r="2" fill="white"/>
<circle cx="242" cy="354" r="2" fill="white"/>
<circle cx="258" cy="354" r="2" fill="white"/>
<circle cx="274" cy="354" r="2" fill="white"/>
<circle cx="290" cy="354" r="2" fill="white"/>
<circle cx="306" cy="354" r="2" fill="white"/>
<circle cx="322" cy="354" r="2" fill="white"/>
<circle cx="338" cy="354" r="2" fill="white"/>
<circle cx="354" cy="354" r="2" fill="white"/>
<circle cx="370" cy="354" r="2" fill="white"/>
<circle cx="386" cy="354" r="2" fill="white"/>
<circle cx="402" cy="354" r="2" fill="white"/>
<circle cx="418" cy="354" r="2" fill="white"/>
<circle cx="434" cy="354" r="2" fill="white"/>
<circle cx="450" cy="354" r="2" fill="white"/>
<circle cx="466" cy="354" r="2" fill="white"/>
</g>
<g opacity="0.2">
<circle cx="2" cy="370" r="2" fill="white"/>
<circle cx="18" cy="370" r="2" fill="white"/>
<circle cx="34" cy="370" r="2" fill="white"/>
<circle cx="50" cy="370" r="2" fill="white"/>
<circle cx="66" cy="370" r="2" fill="white"/>
<circle cx="82" cy="370" r="2" fill="white"/>
<circle cx="98" cy="370" r="2" fill="white"/>
<circle cx="114" cy="370" r="2" fill="white"/>
<circle cx="130" cy="370" r="2" fill="white"/>
<circle cx="146" cy="370" r="2" fill="white"/>
<circle cx="162" cy="370" r="2" fill="white"/>
<circle cx="178" cy="370" r="2" fill="white"/>
<circle cx="194" cy="370" r="2" fill="white"/>
<circle cx="210" cy="370" r="2" fill="white"/>
<circle cx="226" cy="370" r="2" fill="white"/>
<circle cx="242" cy="370" r="2" fill="white"/>
<circle cx="258" cy="370" r="2" fill="white"/>
<circle cx="274" cy="370" r="2" fill="white"/>
<circle cx="290" cy="370" r="2" fill="white"/>
<circle cx="306" cy="370" r="2" fill="white"/>
<circle cx="322" cy="370" r="2" fill="white"/>
<circle cx="338" cy="370" r="2" fill="white"/>
<circle cx="354" cy="370" r="2" fill="white"/>
<circle cx="370" cy="370" r="2" fill="white"/>
<circle cx="386" cy="370" r="2" fill="white"/>
<circle cx="402" cy="370" r="2" fill="white"/>
<circle cx="418" cy="370" r="2" fill="white"/>
<circle cx="434" cy="370" r="2" fill="white"/>
<circle cx="450" cy="370" r="2" fill="white"/>
<circle cx="466" cy="370" r="2" fill="white"/>
</g>
<g opacity="0.2">
<circle cx="2" cy="386" r="2" fill="white"/>
<circle cx="18" cy="386" r="2" fill="white"/>
<circle cx="34" cy="386" r="2" fill="white"/>
<circle cx="50" cy="386" r="2" fill="white"/>
<circle cx="66" cy="386" r="2" fill="white"/>
<circle cx="82" cy="386" r="2" fill="white"/>
<circle cx="98" cy="386" r="2" fill="white"/>
<circle cx="114" cy="386" r="2" fill="white"/>
<circle cx="130" cy="386" r="2" fill="white"/>
<circle cx="146" cy="386" r="2" fill="white"/>
<circle cx="162" cy="386" r="2" fill="white"/>
<circle cx="178" cy="386" r="2" fill="white"/>
<circle cx="194" cy="386" r="2" fill="white"/>
<circle cx="210" cy="386" r="2" fill="white"/>
<circle cx="226" cy="386" r="2" fill="white"/>
<circle cx="242" cy="386" r="2" fill="white"/>
<circle cx="258" cy="386" r="2" fill="white"/>
<circle cx="274" cy="386" r="2" fill="white"/>
<circle cx="290" cy="386" r="2" fill="white"/>
<circle cx="306" cy="386" r="2" fill="white"/>
<circle cx="322" cy="386" r="2" fill="white"/>
<circle cx="338" cy="386" r="2" fill="white"/>
<circle cx="354" cy="386" r="2" fill="white"/>
<circle cx="370" cy="386" r="2" fill="white"/>
<circle cx="386" cy="386" r="2" fill="white"/>
<circle cx="402" cy="386" r="2" fill="white"/>
<circle cx="418" cy="386" r="2" fill="white"/>
<circle cx="434" cy="386" r="2" fill="white"/>
<circle cx="450" cy="386" r="2" fill="white"/>
<circle cx="466" cy="386" r="2" fill="white"/>
</g>
<g opacity="0.2">
<circle cx="2" cy="402" r="2" fill="white"/>
<circle cx="18" cy="402" r="2" fill="white"/>
<circle cx="34" cy="402" r="2" fill="white"/>
<circle cx="50" cy="402" r="2" fill="white"/>
<circle cx="66" cy="402" r="2" fill="white"/>
<circle cx="82" cy="402" r="2" fill="white"/>
<circle cx="98" cy="402" r="2" fill="white"/>
<circle cx="114" cy="402" r="2" fill="white"/>
<circle cx="130" cy="402" r="2" fill="white"/>
<circle cx="146" cy="402" r="2" fill="white"/>
<circle cx="162" cy="402" r="2" fill="white"/>
<circle cx="178" cy="402" r="2" fill="white"/>
<circle cx="194" cy="402" r="2" fill="white"/>
<circle cx="210" cy="402" r="2" fill="white"/>
<circle cx="226" cy="402" r="2" fill="white"/>
<circle cx="242" cy="402" r="2" fill="white"/>
<circle cx="258" cy="402" r="2" fill="white"/>
<circle cx="274" cy="402" r="2" fill="white"/>
<circle cx="290" cy="402" r="2" fill="white"/>
<circle cx="306" cy="402" r="2" fill="white"/>
<circle cx="322" cy="402" r="2" fill="white"/>
<circle cx="338" cy="402" r="2" fill="white"/>
<circle cx="354" cy="402" r="2" fill="white"/>
<circle cx="370" cy="402" r="2" fill="white"/>
<circle cx="386" cy="402" r="2" fill="white"/>
<circle cx="402" cy="402" r="2" fill="white"/>
<circle cx="418" cy="402" r="2" fill="white"/>
<circle cx="434" cy="402" r="2" fill="white"/>
<circle cx="450" cy="402" r="2" fill="white"/>
<circle cx="466" cy="402" r="2" fill="white"/>
</g>
<g opacity="0.2">
<circle cx="2" cy="418" r="2" fill="white"/>
<circle cx="18" cy="418" r="2" fill="white"/>
<circle cx="34" cy="418" r="2" fill="white"/>
<circle cx="50" cy="418" r="2" fill="white"/>
<circle cx="66" cy="418" r="2" fill="white"/>
<circle cx="82" cy="418" r="2" fill="white"/>
<circle cx="98" cy="418" r="2" fill="white"/>
<circle cx="114" cy="418" r="2" fill="white"/>
<circle cx="130" cy="418" r="2" fill="white"/>
<circle cx="146" cy="418" r="2" fill="white"/>
<circle cx="162" cy="418" r="2" fill="white"/>
<circle cx="178" cy="418" r="2" fill="white"/>
<circle cx="194" cy="418" r="2" fill="white"/>
<circle cx="210" cy="418" r="2" fill="white"/>
<circle cx="226" cy="418" r="2" fill="white"/>
<circle cx="242" cy="418" r="2" fill="white"/>
<circle cx="258" cy="418" r="2" fill="white"/>
<circle cx="274" cy="418" r="2" fill="white"/>
<circle cx="290" cy="418" r="2" fill="white"/>
<circle cx="306" cy="418" r="2" fill="white"/>
<circle cx="322" cy="418" r="2" fill="white"/>
<circle cx="338" cy="418" r="2" fill="white"/>
<circle cx="354" cy="418" r="2" fill="white"/>
<circle cx="370" cy="418" r="2" fill="white"/>
<circle cx="386" cy="418" r="2" fill="white"/>
<circle cx="402" cy="418" r="2" fill="white"/>
<circle cx="418" cy="418" r="2" fill="white"/>
<circle cx="434" cy="418" r="2" fill="white"/>
<circle cx="450" cy="418" r="2" fill="white"/>
<circle cx="466" cy="418" r="2" fill="white"/>
</g>
<g opacity="0.2">
<circle cx="2" cy="434" r="2" fill="white"/>
<circle cx="18" cy="434" r="2" fill="white"/>
<circle cx="34" cy="434" r="2" fill="white"/>
<circle cx="50" cy="434" r="2" fill="white"/>
<circle cx="66" cy="434" r="2" fill="white"/>
<circle cx="82" cy="434" r="2" fill="white"/>
<circle cx="98" cy="434" r="2" fill="white"/>
<circle cx="114" cy="434" r="2" fill="white"/>
<circle cx="130" cy="434" r="2" fill="white"/>
<circle cx="146" cy="434" r="2" fill="white"/>
<circle cx="162" cy="434" r="2" fill="white"/>
<circle cx="178" cy="434" r="2" fill="white"/>
<circle cx="194" cy="434" r="2" fill="white"/>
<circle cx="210" cy="434" r="2" fill="white"/>
<circle cx="226" cy="434" r="2" fill="white"/>
<circle cx="242" cy="434" r="2" fill="white"/>
<circle cx="258" cy="434" r="2" fill="white"/>
<circle cx="274" cy="434" r="2" fill="white"/>
<circle cx="290" cy="434" r="2" fill="white"/>
<circle cx="306" cy="434" r="2" fill="white"/>
<circle cx="322" cy="434" r="2" fill="white"/>
<circle cx="338" cy="434" r="2" fill="white"/>
<circle cx="354" cy="434" r="2" fill="white"/>
<circle cx="370" cy="434" r="2" fill="white"/>
<circle cx="386" cy="434" r="2" fill="white"/>
<circle cx="402" cy="434" r="2" fill="white"/>
<circle cx="418" cy="434" r="2" fill="white"/>
<circle cx="434" cy="434" r="2" fill="white"/>
<circle cx="450" cy="434" r="2" fill="white"/>
<circle cx="466" cy="434" r="2" fill="white"/>
</g>
<g opacity="0.2">
<circle cx="2" cy="450" r="2" fill="white"/>
<circle cx="18" cy="450" r="2" fill="white"/>
<circle cx="34" cy="450" r="2" fill="white"/>
<circle cx="50" cy="450" r="2" fill="white"/>
<circle cx="66" cy="450" r="2" fill="white"/>
<circle cx="82" cy="450" r="2" fill="white"/>
<circle cx="98" cy="450" r="2" fill="white"/>
<circle cx="114" cy="450" r="2" fill="white"/>
<circle cx="130" cy="450" r="2" fill="white"/>
<circle cx="146" cy="450" r="2" fill="white"/>
<circle cx="162" cy="450" r="2" fill="white"/>
<circle cx="178" cy="450" r="2" fill="white"/>
<circle cx="194" cy="450" r="2" fill="white"/>
<circle cx="210" cy="450" r="2" fill="white"/>
<circle cx="226" cy="450" r="2" fill="white"/>
<circle cx="242" cy="450" r="2" fill="white"/>
<circle cx="258" cy="450" r="2" fill="white"/>
<circle cx="274" cy="450" r="2" fill="white"/>
<circle cx="290" cy="450" r="2" fill="white"/>
<circle cx="306" cy="450" r="2" fill="white"/>
<circle cx="322" cy="450" r="2" fill="white"/>
<circle cx="338" cy="450" r="2" fill="white"/>
<circle cx="354" cy="450" r="2" fill="white"/>
<circle cx="370" cy="450" r="2" fill="white"/>
<circle cx="386" cy="450" r="2" fill="white"/>
<circle cx="402" cy="450" r="2" fill="white"/>
<circle cx="418" cy="450" r="2" fill="white"/>
<circle cx="434" cy="450" r="2" fill="white"/>
<circle cx="450" cy="450" r="2" fill="white"/>
<circle cx="466" cy="450" r="2" fill="white"/>
</g>
<g opacity="0.2">
<circle cx="2" cy="466" r="2" fill="white"/>
<circle cx="18" cy="466" r="2" fill="white"/>
<circle cx="34" cy="466" r="2" fill="white"/>
<circle cx="50" cy="466" r="2" fill="white"/>
<circle cx="66" cy="466" r="2" fill="white"/>
<circle cx="82" cy="466" r="2" fill="white"/>
<circle cx="98" cy="466" r="2" fill="white"/>
<circle cx="114" cy="466" r="2" fill="white"/>
<circle cx="130" cy="466" r="2" fill="white"/>
<circle cx="146" cy="466" r="2" fill="white"/>
<circle cx="162" cy="466" r="2" fill="white"/>
<circle cx="178" cy="466" r="2" fill="white"/>
<circle cx="194" cy="466" r="2" fill="white"/>
<circle cx="210" cy="466" r="2" fill="white"/>
<circle cx="226" cy="466" r="2" fill="white"/>
<circle cx="242" cy="466" r="2" fill="white"/>
<circle cx="258" cy="466" r="2" fill="white"/>
<circle cx="274" cy="466" r="2" fill="white"/>
<circle cx="290" cy="466" r="2" fill="white"/>
<circle cx="306" cy="466" r="2" fill="white"/>
<circle cx="322" cy="466" r="2" fill="white"/>
<circle cx="338" cy="466" r="2" fill="white"/>
<circle cx="354" cy="466" r="2" fill="white"/>
<circle cx="370" cy="466" r="2" fill="white"/>
<circle cx="386" cy="466" r="2" fill="white"/>
<circle cx="402" cy="466" r="2" fill="white"/>
<circle cx="418" cy="466" r="2" fill="white"/>
<circle cx="434" cy="466" r="2" fill="white"/>
<circle cx="450" cy="466" r="2" fill="white"/>
<circle cx="466" cy="466" r="2" fill="white"/>
</g>
</g>
</svg>
