<svg width="89" height="89" viewBox="0 0 89 89" fill="none" xmlns="http://www.w3.org/2000/svg">
<g clip-path="url(#clip0_1_117)">
<path d="M59.2325 18.6159C57.5174 18.1253 55.7257 18.5309 54.3407 19.759C53.8463 20.2082 53.3348 20.9415 48.7472 28.2257C45.9749 32.6202 43.6828 36.2339 43.6828 36.2339C43.6481 36.2432 43.9883 32.8544 44.4331 28.6737C44.8651 24.5151 45.2004 20.8295 45.1767 20.4632C45.0922 19.5916 44.6458 18.4816 44.1059 17.7878C43.7355 17.3095 43.4524 17.0873 42.6369 16.6164C41.7112 16.082 41.5662 16.0277 40.7489 15.9672C40.2724 15.9272 39.5873 15.9431 39.2651 15.9922C38.4028 16.1115 37.308 16.6843 36.6516 17.3632C35.5354 18.482 35.51 18.5261 33.0841 29.4976C31.8665 34.966 30.8611 39.5577 30.8382 39.7502C30.7736 40.0656 30.7389 40.0749 29.7952 40.0296C27.3873 39.8737 25.0366 41.0438 23.6828 43.0834C23.1933 43.8294 22.9575 44.3397 21.8576 47.4663C20.1985 52.1214 19.847 53.7992 19.9928 56.4989C20.2127 61.0045 22.1081 64.9494 25.535 68.0741C26.3996 68.8671 26.6513 69.0419 30.6627 71.3578C34.6521 73.6611 34.9386 73.8265 36.0704 74.1567C43.0968 76.3914 50.4553 74.2334 54.9661 68.6092C55.6328 67.7598 56.3929 66.4942 60.8501 58.7232L65.969 49.8061L66.0397 48.8184C66.124 47.6034 65.8225 46.5477 65.1292 45.5597C64.7089 44.9644 64.4826 44.7456 63.7459 44.2909C62.8898 43.7378 62.398 43.5715 61.2874 43.4592C61.0949 43.4362 61.111 43.3574 61.4164 42.8284C62.4345 41.0652 62.2148 38.6461 60.8706 37.106C60.2518 36.3961 58.7183 35.5401 57.8476 35.4194C57.4847 35.3862 57.1693 35.3217 57.1473 35.309C57.1253 35.2963 58.3757 33.0795 59.9155 30.4126C62.5623 25.8281 62.7532 25.4975 62.9111 24.7659C63.4597 22.0851 61.8555 19.3663 59.2325 18.6159ZM59.6766 21.6642C60.1826 22.162 60.4919 22.8989 60.495 23.6061L60.4923 24.2216L54.419 34.7918L48.3457 45.3619L48.0999 45.2787C44.3009 44.1727 33.2611 40.7964 33.2424 40.7268C33.1738 40.5403 37.7699 20.0072 37.9353 19.7207C38.4698 18.795 39.6875 18.2638 40.7439 18.521C41.7782 18.7655 42.5385 19.5865 42.6416 20.5277C42.672 20.7803 42.2841 24.9644 41.7636 29.8361C41.2559 34.6858 40.8586 38.8351 40.9052 39.009C41.0195 39.5745 41.3271 39.9579 41.834 40.2505C42.914 40.8741 43.8434 40.5878 44.6441 39.4044C44.8952 39.0204 47.4164 35.01 50.2395 30.5273C53.0406 26.032 55.5075 22.1665 55.6695 21.9368C56.2887 21.1188 57.3258 20.7477 58.3728 20.9702C59.0477 21.1247 59.224 21.2265 59.6766 21.6642ZM59.12 38.9164C59.3708 39.2964 59.5444 40.0137 59.5264 40.5029C59.528 40.8565 59.1683 41.5304 56.0379 46.9524C52.8821 52.4185 52.5038 53.0229 52.1841 53.2203C51.1554 53.8313 49.8836 53.7436 49.0759 52.9539C48.4817 52.4052 48.1615 51.28 48.3542 50.539C48.4442 50.1795 49.4529 48.3815 51.88 44.2286C55.6305 37.7834 55.3794 38.1674 56.514 37.8821C57.4619 37.6653 58.6217 38.0998 59.12 38.9164ZM62.9363 46.7622C63.3762 47.2218 63.6556 48.2648 63.5138 48.9176C63.3627 49.5357 58.8801 57.3507 58.3602 57.844C57.0031 59.1765 54.5353 58.31 54.2154 56.4208C54.0427 55.4983 54.237 55.1109 56.877 50.6401L59.2532 46.5753L59.8544 46.2465C60.3132 46.0118 60.6261 45.928 61.1721 45.9493C61.9454 45.9843 62.4116 46.1948 62.9363 46.7622ZM45.7953 48.1506C45.0191 49.495 43.7554 50.4112 42.2894 50.7108C41.3194 50.9149 40.9912 50.8724 37.5279 50.254C35.8687 49.972 34.2409 49.7375 33.9221 49.7297C32.7919 49.7531 31.7471 50.4429 31.2337 51.5865C31.0106 52.0748 30.9197 52.6395 30.8301 54.3216C30.7492 55.4798 30.7633 56.5753 30.8446 56.7398C30.9259 56.9043 31.1523 57.1231 31.3727 57.2504C31.8796 57.543 32.7581 57.3449 33.0126 56.9041C33.1016 56.7498 33.2453 55.6866 33.3135 54.5505C33.4412 52.8023 33.4837 52.4741 33.7211 52.3174C33.9238 52.1699 34.5233 52.2515 37.1413 52.7051C40.7844 53.3684 41.6145 53.4069 43.0712 53.0724C43.9276 52.8616 45.3098 52.249 45.7186 51.8973C45.7661 51.8659 45.8975 52.1474 45.9999 52.5299C46.1024 52.9123 46.4498 53.5831 46.754 54.0232C47.2557 54.7831 47.3532 54.8687 48.2569 55.3905C49.3148 56.0013 50.0778 56.2067 51.0063 56.1256L51.5557 56.0902L51.8352 57.1331C52.1519 58.3152 52.6409 59.097 53.4961 59.8553C54.1692 60.4202 55.1933 60.8352 56.1208 60.9592L56.6761 61.0154L54.9141 63.9654C53.0249 67.1358 52.5932 67.68 51.031 69.0115C46.7439 72.6195 40.6728 73.4638 35.4872 71.1457C34.1104 70.5272 29.4599 67.8422 28.2799 66.9846C26.4769 65.6792 24.8064 63.6861 23.8651 61.7027C23.2364 60.3993 22.6215 58.1047 22.5525 56.5955C22.3905 53.9747 22.6164 52.8708 24.2628 48.2378C25.6596 44.3423 25.8157 44.021 26.981 43.2243C27.6365 42.7506 28.9449 42.4187 29.7402 42.4664C30.2735 42.5098 45.5888 47.0322 46.0864 47.2901C46.2059 47.3885 46.177 47.4893 45.7953 48.1506Z" fill="black" stroke="#FDC500" stroke-width="0.6"/>
</g>
<defs>
<clipPath id="clip0_1_117">
<rect width="65" height="65" fill="white" transform="translate(32.5763) scale(1.00235) rotate(30)"/>
</clipPath>
</defs>
</svg>
